<svg xmlns="http://www.w3.org/2000/svg" viewBox="0 0 533.5 544.3" role="img" aria-label="Google">
  <path fill="#4285F4" d="M533.5 278.4c0-17.4-1.5-34.1-4.3-50.4H272v95.3h146.9c-6.4 34.6-25.7 63.9-54.9 83.5v69.1h88.7c51.9-47.8 80.8-118.3 80.8-197.5z"/>
  <path fill="#34A853" d="M272 544.3c73.7 0 135.6-24.3 180.8-66.1l-88.7-69.1c-24.6 16.5-56.1 26.2-92.1 26.2-70.9 0-131-47.9-152.5-112.1H28.9v70.7C73.9 475.4 165.5 544.3 272 544.3z"/>
  <path fill="#FBBC04" d="M119.5 323.2c-10.2-30.4-10.2-63.6 0-94l.1-70.7H28.9c-39.1 78.1-39.1 169.9 0 248l90.6-70.7z"/>
  <path fill="#EA4335" d="M272 107.7c39.9-.6 78.5 14.7 107.7 42.7l80.2-80.2C405.5 24.8 343.9-.4 272 0 165.5 0 73.9 68.9 28.9 160.5l90.6 70.7C141 155.6 201.1 107.7 272 107.7z"/>
</svg>
